<svg width="31" height="13" viewBox="0 0 31 13" fill="none" xmlns="http://www.w3.org/2000/svg">
<path d="M0.56 3.776C0.56 2.92266 0.944 2.09067 1.712 1.28C2.48 0.426664 3.33333 -3.8147e-06 4.272 -3.8147e-06C6.10667 -3.8147e-06 7.77067 1.38666 9.264 4.16C10.7573 6.93333 11.504 9.30133 11.504 11.264C11.504 12.416 11.1413 12.992 10.416 12.992C9.94667 12.992 9.15733 12.3307 8.048 11.008C6.98133 9.64267 6.02133 8.768 5.168 8.384C4.99733 8.29866 4.63467 8.14933 4.08 7.936C3.568 7.72266 3.20533 7.57333 2.992 7.488C2.77867 7.36 2.48 7.168 2.096 6.912C1.712 6.61333 1.43467 6.35733 1.264 6.144C1.09333 5.888 0.922667 5.568 0.752 5.184C0.624 4.75733 0.56 4.288 0.56 3.776ZM19.9975 3.776C19.9975 2.92266 20.3815 2.09067 21.1495 1.28C21.9175 0.426664 22.7708 -3.8147e-06 23.7095 -3.8147e-06C25.5442 -3.8147e-06 27.2082 1.38666 28.7015 4.16C30.1948 6.93333 30.9415 9.30133 30.9415 11.264C30.9415 12.416 30.5788 12.992 29.8535 12.992C29.3842 12.992 28.5948 12.3307 27.4855 11.008C26.4188 9.64267 25.4588 8.768 24.6055 8.384C24.4348 8.29866 24.0722 8.14933 23.5175 7.936C23.0055 7.72266 22.6428 7.57333 22.4295 7.488C22.2162 7.36 21.9175 7.168 21.5335 6.912C21.1495 6.61333 20.8722 6.35733 20.7015 6.144C20.5308 5.888 20.3602 5.568 20.1895 5.184C20.0615 4.75733 19.9975 4.288 19.9975 3.776Z" fill="url(#paint0_linear_278_170)"/>
<defs>
<linearGradient id="paint0_linear_278_170" x1="3.5" y1="0.500002" x2="29.5" y2="12.5" gradientUnits="userSpaceOnUse">
<stop stop-color="#FAFF00"/>
<stop offset="1" stop-color="#00ACB1"/>
</linearGradient>
</defs>
</svg>
